<?xml version="1.0" standalone="no"?>
<!DOCTYPE svg PUBLIC "-//W3C//DTD SVG 20010904//EN"
 "http://www.w3.org/TR/2001/REC-SVG-20010904/DTD/svg10.dtd">
<svg version="1.0" xmlns="http://www.w3.org/2000/svg"
 width="700.000000pt" height="700.000000pt" viewBox="0 0 700.000000 700.000000"
 preserveAspectRatio="xMidYMid meet">
<metadata>
Created by potrace 1.11, written by Peter Selinger 2001-2013
</metadata>
<g transform="translate(0.000000,700.000000) scale(0.100000,-0.100000)"
fill="#000000" stroke="none">
<path d="M4100 4535 c-275 -43 -476 -193 -552 -413 -20 -57 -23 -87 -23 -202
0 -163 19 -230 95 -339 99 -140 254 -232 590 -351 304 -108 394 -157 448 -248
24 -41 27 -57 27 -132 0 -127 -36 -184 -145 -234 -157 -71 -422 -56 -561 33
-95 60 -133 137 -132 266 l1 91 -181 -19 c-106 -11 -185 -24 -189 -31 -13 -20
-8 -178 7 -244 22 -95 61 -160 139 -237 143 -142 314 -201 607 -212 192 -7
321 10 452 57 214 78 360 231 412 430 21 79 24 233 6 310 -19 78 -65 168 -117
228 -100 114 -243 191 -554 297 -239 82 -329 124 -393 184 -67 62 -87 107 -87
201 0 120 47 192 155 242 45 21 65 23 200 23 135 0 155 -2 199 -23 80 -36 112
-67 148 -139 31 -64 33 -73 33 -180 l0 -112 35 4 c19 3 107 12 195 21 88 9
163 18 167 20 14 9 9 217 -7 277 -25 95 -72 177 -144 247 -140 138 -342 201
-631 199 -63 -1 -153 -7 -200 -14z"/>
<path d="M1000 4530 c-187 -21 -310 -107 -372 -260 -20 -51 -22 -78 -28 -335
-6 -305 -10 -324 -67 -378 -16 -15 -56 -38 -89 -50 l-59 -23 0 -98 0 -97 59
-24 c72 -29 102 -56 130 -115 18 -41 21 -70 26 -310 6 -236 9 -271 27 -317 33
-83 70 -139 116 -176 85 -70 160 -94 315 -104 l102 -6 0 110 0 110 -60 6
c-106 12 -170 51 -213 132 -19 36 -22 63 -28 270 -4 127 -12 250 -19 275 -27
101 -102 202 -171 231 -35 14 -37 25 -6 33 37 9 101 70 131 126 48 88 56 138
62 370 6 244 15 288 71 344 38 38 97 60 186 71 l48 6 -3 107 -3 107 -40 1
c-22 1 -74 -2 -115 -6z"/>
<path d="M5760 4432 l0 -110 28 -6 c15 -2 48 -7 73 -11 74 -9 135 -55 166
-123 26 -55 27 -66 33 -297 6 -209 10 -247 28 -293 33 -84 87 -148 156 -184
l39 -20 -43 -21 c-58 -30 -124 -106 -151 -175 -20 -50 -23 -84 -29 -287 -8
-242 -17 -295 -60 -355 -29 -41 -108 -78 -182 -86 l-58 -7 0 -110 0 -110 105
6 c205 13 327 82 401 229 45 89 55 167 53 412 -3 238 2 268 54 325 24 26 112
71 140 71 15 0 17 12 17 104 l0 103 -45 13 c-67 19 -123 64 -148 118 -19 43
-22 71 -27 322 -5 224 -10 283 -24 320 -69 182 -189 258 -433 275 l-93 7 0
-110z"/>
<path d="M2170 4355 l0 -155 265 0 266 0 -3 -717 -3 -718 -26 -56 c-43 -90
-110 -129 -226 -129 -102 0 -164 35 -206 115 -26 50 -35 189 -18 276 7 34 11
62 9 63 -2 1 -86 -7 -188 -18 l-185 -21 -12 -55 c-16 -80 -15 -216 2 -285 38
-148 128 -257 267 -324 105 -50 207 -71 350 -71 340 0 556 157 640 465 22 79
22 92 26 933 l3 852 -480 0 -481 0 0 -155z"/>
</g>
</svg>
